<?xml version="1.0" encoding="UTF-8"?><svg id="Layer_2" xmlns="http://www.w3.org/2000/svg" viewBox="0 0 172.58 127.88"><defs><style>.cls-1{fill:none;stroke:#dd7727;}</style></defs><g id="Knockout"><g><polygon class="cls-1" points="19.37 72.48 39.04 73.28 34.08 104.03 12.57 103.12 19.37 72.48"/><polygon class="cls-1" points="154.15 109.08 72.86 105.66 76.13 84.81 154.15 109.08"/><polygon class="cls-1" points="172.01 47.86 109.41 59.82 81.61 49.96 44.89 36.93 44.91 36.93 83.14 40.21 172.01 47.86"/><polygon class="cls-1" points="76.13 84.81 72.86 105.66 69.46 127.28 31.63 119.26 34.08 104.03 39.04 73.28 39.07 73.28 76.13 84.81"/><polygon class="cls-1" points="39.07 73.28 39.04 73.28 39.04 73.27 39.07 73.28"/><polygon class="cls-1" points="83.14 40.21 81.61 49.96 44.89 36.93 44.91 36.93 83.14 40.21"/><polygon class="cls-1" points="161.3 78.23 154.15 109.08 76.13 84.81 39.07 73.28 39.04 73.27 44.89 36.93 81.61 49.96 109.41 59.82 161.3 78.23"/><polygon class="cls-1" points="172.01 47.86 83.14 40.21 44.91 36.93 44.89 36.93 44.89 36.92 1.94 33.23 .52 .55 88.05 8.93 168.29 16.61 172.01 47.86"/></g></g></svg>